<?xml version="1.0" standalone="no"?>
<!DOCTYPE svg PUBLIC "-//W3C//DTD SVG 20010904//EN"
 "http://www.w3.org/TR/2001/REC-SVG-20010904/DTD/svg10.dtd">
<svg version="1.0" xmlns="http://www.w3.org/2000/svg"
 width="1024.000000pt" height="1024.000000pt" viewBox="0 0 1024.000000 1024.000000"
 preserveAspectRatio="xMidYMid meet">
<metadata>
Created by potrace 1.11, written by Peter Selinger 2001-2013
</metadata>
<g transform="translate(0.000000,1024.000000) scale(0.100000,-0.100000)"
fill="#000000" stroke="none">
<path d="M2865 8043 c-82 -2 -546 -4 -1030 -6 -484 -1 -889 -6 -900 -9 -11 -3
-42 -12 -70 -18 -107 -26 -274 -119 -365 -202 -44 -41 -126 -141 -158 -195
-65 -108 -101 -215 -118 -349 -9 -75 -9 -3138 0 -3219 13 -110 37 -187 94
-300 94 -186 278 -348 476 -420 154 -56 72 -53 1807 -54 1441 -1 1611 1 1660
15 129 38 227 130 269 253 26 77 28 195 5 256 -39 101 -49 112 -616 680 l-569
570 43 13 c23 7 66 20 94 28 112 30 275 107 393 187 255 171 455 417 565 695
41 105 84 262 91 337 2 28 7 56 10 64 6 19 6 264 -2 331 -23 220 -116 475
-242 665 -225 339 -613 593 -992 651 -19 3 -41 7 -49 10 -8 3 -55 7 -105 10
-50 3 -102 6 -116 7 -14 1 -92 1 -175 0z"/>
<path d="M7371 8009 c-222 -48 -418 -167 -556 -338 -64 -80 -85 -116 -205
-346 -51 -99 -116 -225 -145 -280 -29 -55 -83 -158 -120 -230 -37 -71 -96
-184 -130 -250 -34 -66 -101 -194 -148 -285 -175 -340 -221 -428 -277 -535
-32 -60 -90 -173 -130 -250 -40 -77 -98 -189 -130 -250 -113 -217 -209 -402
-274 -528 -118 -229 -155 -406 -131 -627 8 -77 42 -220 57 -237 6 -7 8 -13 5
-13 -12 0 48 -118 99 -196 117 -178 265 -290 474 -357 65 -21 67 -21 1775 -24
1724 -2 1750 -2 1865 31 28 8 159 67 175 78 6 5 38 29 72 54 73 53 164 150
201 214 14 25 29 47 32 50 24 19 104 230 116 305 2 17 8 55 13 85 9 58 7 218
-4 285 -8 48 -22 104 -42 165 -14 43 -131 290 -142 300 -4 3 -27 48 -54 100
-26 52 -86 169 -133 260 -47 91 -126 244 -176 340 -50 96 -108 207 -128 245
-21 39 -79 151 -130 250 -51 99 -109 212 -130 250 -21 39 -79 151 -130 250
-51 99 -116 225 -145 280 -54 104 -140 268 -290 560 -48 94 -94 177 -101 186
-8 8 -14 19 -14 23 0 15 -101 137 -158 191 -109 102 -216 167 -358 214 -115
38 -135 41 -284 47 -100 3 -144 0 -219 -17z"/>
<path d="M6767 2984 c-1 -1 -24 -5 -52 -9 -72 -9 -165 -57 -214 -111 -78 -83
-111 -184 -106 -322 6 -183 106 -322 265 -369 125 -36 278 -8 364 67 29 26 34
35 25 46 -16 20 -24 18 -71 -16 -52 -38 -125 -60 -197 -60 -189 0 -316 134
-325 340 -9 218 117 369 316 376 86 3 153 -14 205 -52 37 -28 46 -29 64 -8 11
14 10 19 -11 36 -48 39 -116 66 -188 75 -40 5 -73 8 -75 7z"/>
<path d="M8582 2971 c-9 -5 -12 -89 -13 -302 0 -547 -2 -507 24 -505 l22 1 5
352 5 351 160 -279 c189 -330 184 -326 250 -205 22 40 92 166 155 279 l115
206 5 -352 5 -352 25 0 25 0 0 403 0 402 -30 0 c-29 0 -35 -7 -100 -122 -38
-68 -111 -197 -162 -287 -51 -90 -93 -167 -93 -173 0 -5 -4 -7 -9 -3 -9 5 -22
27 -89 145 -14 25 -62 108 -107 185 -46 77 -96 164 -113 194 -30 54 -58 76
-80 62z"/>
<path d="M7735 2923 c-10 -27 -25 -66 -35 -88 -9 -22 -40 -96 -68 -165 -28
-69 -85 -208 -126 -309 -42 -101 -76 -187 -76 -191 0 -10 48 -6 59 5 5 6 28
57 51 115 23 58 44 110 46 115 3 7 76 10 200 10 l196 0 24 -60 c13 -33 28 -69
33 -80 5 -11 17 -39 26 -62 10 -24 24 -44 32 -44 37 -4 43 -4 44 1 1 7 -11 36
-77 197 -31 76 -92 226 -136 333 -119 293 -107 270 -144 270 -28 0 -33 -5 -49
-47z m90 -118 c50 -122 135 -335 135 -339 0 -4 -79 -6 -176 -6 -104 0 -174 4
-172 9 2 5 41 104 88 220 l85 210 14 -32 c8 -18 20 -45 26 -62z"/>
</g>
</svg>
