<svg height="238" viewBox="0 0 174 238" width="174" xmlns="http://www.w3.org/2000/svg"><g fill="none" fill-rule="evenodd"><path d="m83.4836237 15.0961672c30.4348433 0 55.2313593 20.4919861 55.2313593 45.5916377 0 25.0996515-24.796516 45.5916381-55.2313593 45.5916381-30.4348432 0-55.2313589-20.5526137-55.2313589-45.6522653s24.7965157-45.5310105 55.2313589-45.5310105zm77.1177703 151.3860628h3.880139v3.880139h-3.880139zm-13.156098 0h3.88014v3.880139h-3.88014zm-13.156097 0h3.880139v3.880139h-3.880139zm-13.095471 0h3.88014v3.880139h-3.88014zm-13.156097 0h3.880139v3.880139h-3.880139zm-13.0954707 0h3.8801394v3.880139h-3.8801394zm-13.1560976 0h3.8801394v3.880139h-3.8801394zm-13.1560975 0h3.8801393v3.880139h-3.8801393zm-13.0954704 0h3.8801393v3.880139h-3.8801393zm-13.1560976 0h3.8801394v3.880139h-3.8801394zm-13.0954704 0h3.8801394v3.880139h-3.8801394zm-13.1560975 0h3.8801393v3.880139h-3.8801393zm-13.15609759 0h3.88013937v3.880139h-3.88013937zm2.91010453-160.66202094h156.05435576v149.02160294h-156.05435576zm-5.33519164-5.33519164h166.7247384v159.69198558h-166.7247384zm82.6348432 21.88641118c16.369338 0 29.7073172 13.3986062 29.7073172 29.707317v15.8236934c0 16.369338-13.3986064 29.7073171-29.7073172 29.7073171-16.369338 0-29.7073171-13.3986063-29.7073171-29.7073171v-15.7630662c-.0606271-16.369338 13.3379791-29.7679442 29.7073171-29.7679442zm-46.4404181 78.4515684c5.8808362 2.849477 40.8020906 18.24878 47.1073171 19.09756 6.3052264.848781 19.5219512 4.365157 34.4968642.242509s14.732404-7.578397 18.855052-7.578397 4.547038 2.606969 2.849477 5.213937c-1.758188 2.606969-13.034843 10.003485-16.248083 13.459234-3.273868 3.455749-10.609756 11.094773-12.610453 12.610453-1.94007 1.515679-6.972126 5.638327-16.9149827-1.273171-10.0034843-6.972125-32.3142857-20.61324-41.4689895-25.402788-9.0940767-4.789547-21.2801394-10.185365-23.4627178-11.276655-2.1825784-1.091289-3.4557491-2.364459-1.9400697-5.213937 1.5156795-2.9101044 3.4557491-2.7282228 9.3365854.121255z" fill="#862983"/><g fill="#0f828e"><path d="m18.9156794 181.699652c6.6083624 0 10.9735192 8.124041 10.9735192 21.03763s-4.3045296 21.037631-10.9735192 21.037631c-6.6689895 0-10.91289194-8.548432-10.91289194-21.037631 0-12.489198 4.24390244-21.03763 10.91289194-21.03763zm92.8202096 13.580487c-.121255 1.212544.727526 1.09129 1.212543 1.09129h1.030662v22.371428s-.303136 4.547038 2.121951 6.123345c2.425087 1.636934 4.547039 1.818815 6.66899 0s2.425087-3.152613 2.425087-3.819512c0-.727526-.42439-1.212544-1.394425-.121254-1.030662 1.091289-2.243206 1.818815-3.334495 1.697561-1.091289-.121255-2.000697-.788154-2.000697-4.001394v-22.250174h3.940767s1.940069-.121255 1.818815-1.818816-1.212543-1.27317-1.94007-1.394425c-.727526-.121254-3.698257 0-3.698257 0v-5.032056s-.727527-2.425087-1.697561-.606271c-1.030662 1.818815-1.333798 2.606968-2.121952 3.940766-.909407 1.333798-2.910104 2.606969-3.031358 3.819512zm-40.9233454-6.062717 1.2731707.727526 6.7902439-6.850871s2.6675958-2.546342 2.4250871-3.819513c-.1818815-1.27317-1.3944251-2.303832-2.0006969-1.879442-.6062717.42439-3.5163763 4.30453-4.3045296 5.698955-.9094077 1.333798-4.1832752 6.123345-4.1832752 6.123345zm15.9449477-9.700349c-.3031359-1.94007 2.4857143-1.455052 3.5770035-2.182578 1.1519163-.788154 1.5156794-1.818816 2.5463414-1.697561 1.0306621.121254.7881533 1.394425.7881533 2.121951v43.287805s0 1.091289.9094077 1.515679c.9094077.424391 2.2432056.788154 2.2432056 1.212544s-.4850174 1.455052-1.4550523 1.455052c-.9700348 0-2.0006968-.485017-2.9707317-.485017-1.030662 0-2.3644599.121254-3.3951219.242508-1.0306621.121255-2.9707317.485018-2.9707317-.909407 0-1.333798 2.0006968-1.212544 2.5463414-1.636934s.7275262-2.061324.7275262-2.910105v-37.770731s.2425087-.848781-.7275262-1.212544c-1.0912892-.303136-1.6369338.181882-1.8188153-1.030662zm12.4891986 18.551917c-.2425087-.970035.4243902-1.030662 1.6975611-2.000697 1.273171-.970035 2.121951-1.51568 2.728223-2.303833s.909408-1.636934 1.636934-1.51568c.727526.121255.788153 1.455053.788153 2.121952v26.675958s0 1.091289.909408 1.515679c.909407.424391 2.243205.788154 2.243205 1.212544s-.485017 1.455052-1.455052 1.455052-2.000697-.485017-2.970732-.485017-2.36446.121254-3.395122.242508c-1.030662.121255-2.9707314.485018-2.9707314-.909407 0-1.333798 2.0006964-1.212544 2.5463414-1.636934s.727526-2.061324.727526-2.910105v-19.400696s.242509-.909408-.727526-1.212544c-1.0912891-.303136-1.4550522.060627-1.7581881-.84878zm4.5470381-20.734495c1.394425 0 2.485715 1.697561 2.485715 3.758885s-1.09129 3.758885-2.485715 3.758885-2.485714-1.697561-2.485714-3.758885 1.091289-3.758885 2.485714-3.758885zm59.232753 22.795819c-.788153 0-1.455052-1.394425-1.697561-2.788851-.242509-1.394425-1.697561-3.21324-3.637631-3.334494-1.940069-.060628-4.062021 1.091289-4.122648 4.304529-.060627 3.152613-.121254 4.122648 5.395819 7.639025 5.517073 3.516376 6.062718 7.51777 6.123345 9.336585s-.363763 6.547735-3.637631 9.094077c-3.21324 2.485714-6.365853 2.36446-9.154704 1.27317-2.78885-1.091289-3.21324-2.182578-3.21324-4.486411s0-4.122648.060627-4.850174.42439-1.697561 1.030662-1.697561 1.030662.970035 1.273171 2.485714c.242509 1.576307.909408 6.547736 2.970732 6.911499s4.425784.242508 5.880836-1.818816 1.333798-7.214634-.363763-8.972822-6.2446-3.758885-8.063415-6.123345c-1.758188-2.36446-2.182578-4.001394-2.061324-6.244599.121254-2.303833.727526-5.395819 3.758885-7.396516s6.244599-1.697561 7.457143-1.151916c1.151916.545644 2.78885 1.697561 2.728223 3.455749-.060627 1.697561.060627 4.365157-.727526 4.365157zm-35.22439 3.455749c1.636933.909407 2.849477-1.394425 3.455749-2.78885.606271-1.394426 1.333798-4.243903 2.061324-4.850175.727526-.606271 1.758188-2.000697 4.183275-1.697561s1.697561 3.819513 1.697561 4.607666v7.214634s-4.486411 3.334495-5.880836 4.243902c-1.394425.970035-4.183275 3.516377-5.517073 6.183973-1.333798 2.667595-1.636934 6.911498.727526 8.487804 2.36446 1.51568 4.243902 1.818816 7.09338-.121254 2.78885-2.000697 3.334494-3.516376 4.183275-1.818815.909407 1.697561.909407 3.091986 2.849477 3.031359 2.000697-.060628 3.031359-1.51568 3.455749-2.121952.424391-.606271 1.758188-2.425087 1.091289-3.091986-.666898-.666899-1.27317 0-1.636933.606272s-1.818816.970035-2.000697-.970035c-.303136-4.001393.121254-20.310104-.303136-23.40209 0 0-.727526-4.668293-4.243903-5.032056-3.516376-.363763-6.42648.727526-8.609059 3.455749-2.182578 2.728223-2.849477 3.880139-3.152613 4.72892-.303136.727526-1.091289 2.425087.545645 3.334495zm10.30662 5.698954c-1.212544.848781-2.485714 1.697561-4.183275 3.334495-2.121952 2.061324-2.485715 3.152613-2.667596 5.395819-.121255 2.182578.545644 4.850174 3.334494 4.365157 2.788851-.545645 3.334495-1.818816 3.819513-3.213241.485017-1.394425.727526-2.849477.727526-4.183275v-5.15331c.060627-.606272-.545645-.788153-1.030662-.545645zm-73.7226483-5.698954c1.6369338.909407 2.8494774-1.394425 3.4557491-2.78885.6062718-1.394426 1.333798-4.243903 2.0613241-4.850175.7275261-.606271 1.7581881-2.000697 4.1832752-1.697561 2.4250872.303136 1.697561 3.819513 1.697561 4.607666v7.214634s-4.4864111 3.334495-5.8808362 4.243902c-1.3944251.970035-4.1832753 3.516377-5.5170732 6.183973-1.3337979 2.667595-1.6369338 6.911498.7275262 8.487804 2.3644599 1.51568 4.2439024 1.818816 7.0933797-.121254 2.7888502-2.000697 3.3344948-3.516376 4.1832753-1.818815.9094077 1.697561.9094077 3.091986 2.8494774 3.031359 2.0006968-.060628 3.0313588-1.51568 3.4557491-2.121952.4243902-.606271 1.7581881-2.425087 1.0912892-3.091986-.666899-.666899-1.2731707 0-1.6369338.606272s-1.8188153.970035-2.0006969-.970035c-.3031359-4.001393.1212544-20.310104-.3031359-23.40209 0 0-.7275261-4.668293-4.2439024-5.032056s-6.4264808.727526-8.6090592 3.455749-2.8494774 3.880139-3.1526133 4.72892c-.2425087.727526-1.030662 2.425087.5456446 3.334495zm11.3979094 4.971428c-1.5763066 1.151917-3.091986 2.000697-5.2139373 4.062021-2.1219512 2.061324-2.4857142 3.152613-2.6675958 5.395819-.1212543 2.182578.4850174 4.850174 3.3344948 4.365157 2.7888502-.545645 3.3344948-1.818816 3.8195122-3.213241.5456446-1.394425.7275261-2.849477.7275261-4.183275zm-39.0439024-14.429268c.0606272 1.576307.6668989 1.091289 1.2125435 1.333798.6062718.242509 1.8188154-.242509 1.8188154 1.879442v17.945645s-.0606272 4.183275 1.6369338 7.154007c1.7581881 2.970732 4.3045296 3.880139 6.3658536 3.880139 2.0613241 0 3.8801394-1.758188 4.3045296-2.303832.4243903-.606272 2.3038328-2.606969 2.4250872-.666899.1818815 2.000697 0 2.546341 1.030662 2.849477.9700348.303136.7275261-.606272 2.0006968-1.455052 1.2731708-.848781 1.8794425-1.333798 2.6069687-1.51568.7275261-.181881 1.3944251-1.818815-.0606272-2.121951s-1.4550523-.727526-1.5156794-2.667596c-.0606272-1.940069 0-23.583972 0-23.583972s-.1818816-1.576306-1.6369338-1.758188c-1.4550523-.181882-3.2132405 0-3.9407666 0s-1.4550523.606272-1.3337979 1.212544c.1818815.666898.9700348.84878 1.8188153 1.394425.8487805.606271 1.0912892 1.333798 1.0912892 2.485714v16.551219s.0606272 3.031359-1.2125435 5.032056c-1.3337979 2.000697-2.728223 2.728223-4.6682927 2.728223-2.0006969 0-4.3651568-1.576306-4.425784-5.941463s-.3031359-5.759582-.3031359-5.759582v-15.884321s0-1.697561-1.4550522-1.758188c-1.0306621-.060627-2.8494774-.060627-4.3045296 0-.8487805.121255-1.4550523.42439-1.4550523.970035zm-18.0062718 32.738676c1.2125436 1.697561 3.395122 5.395819 7.2146342 7.578397 3.8195122 2.182579 6.9114982 3.758885 11.5797909 3.213241 4.6682927-.545645 7.3965157-3.395122 8.7909408-5.092683s2.061324-2.849478 1.030662-3.88014-2.4857143.909408-4.3045296 2.061324c-1.8188154 1.151917-3.8195122 2.000697-7.0327526 1.94007-3.2132405-.060627-6.9721255-1.151916-9.3365854-2.485714-2.3038328-1.273171-4.2439025-2.606969-5.0320558-3.698258 8.184669-1.94007 13.5198607-12.367944 13.5198607-23.705227 0-12.549825-6.4264809-24.008362-16.2480837-24.008362-9.82160274 0-16.49059229 12.792335-16.1874564 24.06899.24250871 11.216027 6.36585366 23.887108 16.0055749 24.008362z"/><path d="m168.119164 222.562369c2.970731 0 5.335191 2.303833 5.335191 5.213938 0 2.910104-2.36446 5.274564-5.335191 5.274564-2.970732 0-5.395819-2.303833-5.395819-5.274564 0-2.910105 2.36446-5.213938 5.395819-5.213938zm-.060627 1.030662c-2.243206 0-4.001394 1.879443-4.001394 4.183276 0 2.303832 1.758188 4.183275 4.062021 4.183275 2.243205.060627 4.001393-1.879443 4.001393-4.122648 0-2.36446-1.758188-4.243903-4.06202-4.243903zm-.788154 6.911499h-1.212543v-5.213938c.485017-.060627 1.151916-.181881 2.000697-.181881.970034 0 1.455052.181881 1.758188.42439s.545644.606272.545644 1.091289c0 .666899-.485017 1.030662-1.091289 1.273171v.060627c.485018.181882.788153.545645.909408 1.273171.181881.788153.303136 1.091289.363763 1.273171h-1.273171c-.181881-.181882-.242509-.666899-.42439-1.273171-.121254-.545645-.42439-.788153-1.091289-.788153h-.545645v2.061324zm0-2.910105h.545645c.666899 0 1.212543-.242509 1.212543-.788153 0-.485018-.363763-.788154-1.091289-.788154-.303136 0-.545644.060628-.666899.060628z"/></g></g></svg>